<?xml version="1.0" standalone="no"?>
<!DOCTYPE svg PUBLIC "-//W3C//DTD SVG 20010904//EN"
 "http://www.w3.org/TR/2001/REC-SVG-20010904/DTD/svg10.dtd">
<svg version="1.0" xmlns="http://www.w3.org/2000/svg"
 width="512.000000pt" height="512.000000pt" viewBox="0 0 512.000000 512.000000"
 preserveAspectRatio="xMidYMid meet">
<metadata>
Created by potrace 1.14, written by Peter Selinger 2001-2017
</metadata>
<g transform="translate(0.000000,512.000000) scale(0.100000,-0.100000)"
fill="#000000" stroke="none">
<path d="M909 5116 c-2 -2 -20 -7 -39 -10 -67 -11 -88 -16 -156 -37 -361 -110
-639 -433 -701 -815 -10 -61 -11 -3310 -1 -3379 30 -212 139 -425 294 -577
109 -107 197 -164 339 -223 187 -78 100 -74 1950 -72 908 1 1659 5 1670 9 11
3 49 13 85 21 264 62 527 272 653 520 58 114 78 176 102 312 12 67 14 343 12
1735 -3 1654 -3 1655 -24 1730 -87 308 -249 520 -507 664 -64 36 -231 96 -311
112 -39 8 -3358 18 -3366 10z"/>
</g>
</svg>
